#Comment line ignore any data following # character 
#Hierarchical Translation and Rotation (.htr) file 
[Header]	
#Header keywords are followed by a single value 
FileType HTR		#Single word string
DataType HTRS		#Translation followed by rotation and scale data
FileVersion 1		#integer
NumSegments 25		#integer
NumFrames 5		#integer
DataFrameRate 30		#integer, data frame rate in this file
EulerRotationOrder ZYX
CalibrationUnits mm
RotationUnits Degrees
GlobalAxisofGravity Y
BoneLengthAxis Y
ScaleFactor 1.00
[SegmentNames&Hierarchy]
#CHILD	PARENT
BN_Tick_Root GLOBAL
BN_Torso BN_Tick_Root
BN_L_Leg_Front01 BN_Torso
BN_L_Leg_Rear01 BN_Torso
BN_MetalTop BN_Torso
BN_Neck BN_Torso
BN_R_Leg_Front01 BN_Torso
BN_R_Leg_Rear01 BN_Torso
BN_Sack BN_Torso
BN_L_Leg_Front02 BN_L_Leg_Front01
BN_L_Leg_Front03 BN_L_Leg_Front02
BN_L_Leg_Rear02 BN_L_Leg_Rear01
BN_L_Leg_Rear03 BN_L_Leg_Rear02
BN_Head BN_Neck
BN_Needle BN_Head
BN_R_Leg_Front02 BN_R_Leg_Front01
BN_R_Leg_Front03 BN_R_Leg_Front02
BN_R_Leg_Rear02 BN_R_Leg_Rear01
BN_R_Leg_Rear03 BN_R_Leg_Rear02
BN_SackDef01 BN_Sack
BN_SackDef02 BN_Sack
BN_SackDef03 BN_Sack
BN_SackDef04 BN_Sack
BN_SackDef05 BN_Sack
BN_SackDef06 BN_Sack
[BasePosition]
#SegmentName Tx, Ty, Tz, Rx, Ry, Rz, BoneLength
BN_Tick_Root 0.000000 0.000000 0.000000 -90.000000 0.000000 0.000000 10.000000 
BN_Torso 0.000000 0.000000 0.000000 0.000000 0.000000 0.000000 10.000000 
BN_L_Leg_Front01 0.000000 0.000000 0.000000 0.000000 0.000000 0.000000 10.000000 
BN_L_Leg_Rear01 0.000000 0.000000 0.000000 0.000000 0.000000 0.000000 10.000000 
BN_MetalTop 0.000000 0.000000 0.000000 0.000000 0.000000 0.000000 10.000000 
BN_Neck 0.000000 0.000000 0.000000 0.000000 0.000000 0.000000 10.000000 
BN_R_Leg_Front01 0.000000 0.000000 0.000000 0.000000 0.000000 0.000000 10.000000 
BN_R_Leg_Rear01 0.000000 0.000000 0.000000 0.000000 0.000000 0.000000 10.000000 
BN_Sack 0.000000 0.000000 0.000000 0.000000 0.000000 0.000000 10.000000 
BN_L_Leg_Front02 0.000000 0.000000 0.000000 0.000000 0.000000 0.000000 10.000000 
BN_L_Leg_Front03 0.000000 0.000000 0.000000 0.000000 0.000000 0.000000 10.000000 
BN_L_Leg_Rear02 0.000000 0.000000 0.000000 0.000000 0.000000 0.000000 10.000000 
BN_L_Leg_Rear03 0.000000 0.000000 0.000000 0.000000 0.000000 0.000000 10.000000 
BN_Head 0.000000 0.000000 0.000000 0.000000 0.000000 0.000000 10.000000 
BN_Needle 0.000000 0.000000 0.000000 0.000000 0.000000 0.000000 10.000000 
BN_R_Leg_Front02 0.000000 0.000000 0.000000 0.000000 0.000000 0.000000 10.000000 
BN_R_Leg_Front03 0.000000 0.000000 0.000000 0.000000 0.000000 0.000000 10.000000 
BN_R_Leg_Rear02 0.000000 0.000000 0.000000 0.000000 0.000000 0.000000 10.000000 
BN_R_Leg_Rear03 0.000000 0.000000 0.000000 0.000000 0.000000 0.000000 10.000000 
BN_SackDef01 0.000000 0.000000 0.000000 0.000000 0.000000 0.000000 10.000000 
BN_SackDef02 0.000000 0.000000 0.000000 0.000000 0.000000 0.000000 10.000000 
BN_SackDef03 0.000000 0.000000 0.000000 0.000000 0.000000 0.000000 10.000000 
BN_SackDef04 0.000000 0.000000 0.000000 0.000000 0.000000 0.000000 10.000000 
BN_SackDef05 0.000000 0.000000 0.000000 0.000000 0.000000 0.000000 10.000000 
BN_SackDef06 0.000000 0.000000 0.000000 0.000000 0.000000 0.000000 10.000000 
#Beginning of Data. Separated by tabs
#Fr	Tx	Ty	Tz	Rx	Ry	Rz	SF
[BN_Tick_Root]
657 0.000000 0.000000 0.000000 0.000000 0.000000 -0.000020 0.000000
658 0.000000 0.000000 0.000000 0.000000 0.000000 -0.000020 0.000000
659 0.000000 0.000000 0.000000 0.000000 0.000000 -0.000020 0.000000
660 0.000000 0.000000 0.000000 0.000000 0.000000 -0.000020 0.000000
661 0.000000 0.000000 0.000000 0.000000 0.000000 -0.000020 0.000000
[BN_Torso]
657 1670.763062 -860.649353 275.839203 23.782763 -1.032801 144.983109 1899.540405
658 1684.982300 -855.126709 274.882843 21.023481 -1.530674 144.504272 1909.441772
659 1697.639160 -851.265564 273.155853 18.717669 -1.946766 143.607162 1918.657227
660 1704.572510 -851.285767 270.432678 17.752995 -2.119730 142.166840 1924.419189
661 1706.930786 -854.555969 265.902313 17.790705 -1.947420 140.014862 1927.325195
[BN_L_Leg_Front01]
657 -68.477791 10.734189 -26.804373 -120.497765 63.067318 125.286324 74.316254
658 -68.477791 10.734189 -26.804373 -120.497765 63.067318 125.286324 74.316254
659 -68.477791 10.734189 -26.804373 -120.497765 63.067318 125.286324 74.316254
660 -68.477791 10.734189 -26.804373 -120.493034 63.066048 125.287880 74.316254
661 -68.477791 10.734189 -26.804373 -119.092148 62.685196 125.737747 74.316254
[BN_L_Leg_Rear01]
657 -72.133743 -73.994843 -18.268616 146.400146 53.651188 -122.533401 104.939293
658 -72.133743 -73.994843 -18.268616 146.400146 53.651188 -122.533401 104.939293
659 -72.133743 -73.994843 -18.268616 146.400146 53.651188 -122.533401 104.939293
660 -72.133743 -73.994843 -18.268616 146.400040 53.650200 -122.533661 104.939293
661 -72.133743 -73.994843 -18.268616 146.365234 53.350060 -122.610397 104.939293
[BN_MetalTop]
657 0.000008 13.737477 26.403606 101.480682 -28.522924 -114.153587 29.763546
658 0.000008 13.737477 26.403606 101.183647 -27.662710 -113.507210 29.763546
659 0.000008 13.737477 26.403606 100.748062 -26.833740 -112.808723 29.763546
660 0.000008 13.737477 26.403606 100.169930 -26.043602 -112.054260 29.763546
661 0.000008 13.737477 26.403606 99.424248 -25.286089 -111.087212 29.763546
[BN_Neck]
657 0.000014 95.233284 10.002091 -89.999672 -65.297531 89.999657 95.757088
658 0.000014 95.233284 10.002091 -89.999672 -65.297531 89.999657 95.757088
659 0.000014 95.233284 10.002091 -89.999672 -65.297531 89.999657 95.757088
660 0.000014 95.233284 10.002091 -89.999672 -65.297531 89.999657 95.757088
661 0.000014 95.233284 10.002091 -89.999672 -65.297531 89.999657 95.757088
[BN_R_Leg_Front01]
657 68.477768 10.734107 -26.804314 31.455805 41.588531 -46.642319 74.316193
658 68.477768 10.734107 -26.804314 31.474365 41.624195 -46.614067 74.316193
659 68.477768 10.734107 -26.804314 31.492968 41.659859 -46.585789 74.316193
660 68.477768 10.734107 -26.804314 31.511497 41.694389 -46.556377 74.316193
661 68.477768 10.734107 -26.804314 31.501276 41.393753 -46.199821 74.316193
[BN_R_Leg_Rear01]
657 72.133751 -73.994873 -18.268644 -146.396271 53.648876 -57.465195 104.939331
658 72.133751 -73.994873 -18.268644 -146.396271 53.648876 -57.465195 104.939331
659 72.133751 -73.994873 -18.268644 -146.396271 53.648876 -57.465195 104.939331
660 72.133751 -73.994873 -18.268644 -146.393448 53.647465 -57.461964 104.939331
661 72.133751 -73.994873 -18.268644 -145.556320 53.221127 -56.503834 104.939331
[BN_Sack]
657 -0.000000 -78.024918 33.657791 93.055405 3.463018 -120.675774 84.974907
658 -0.000000 -78.024918 33.657791 93.050529 3.671341 -119.929108 84.974907
659 -0.000000 -78.024918 33.657791 93.048515 3.879300 -119.181801 84.974907
660 -0.000000 -78.024918 33.657791 93.093124 3.960829 -118.304695 84.974907
661 -0.000000 -78.024918 33.657791 93.142105 3.943906 -117.136665 84.974907
[BN_L_Leg_Front02]
657 142.805023 -0.000015 -0.000104 91.446632 11.454811 -20.624811 142.805023
658 142.805023 -0.000015 -0.000104 89.989143 21.314882 -22.478849 142.805023
659 142.805023 -0.000015 -0.000104 88.305260 29.059391 -24.996948 142.805023
660 142.805023 -0.000015 -0.000104 86.933617 31.656441 -27.492401 142.805023
661 142.805023 -0.000015 -0.000104 84.424873 30.848928 -30.021496 142.805023
[BN_L_Leg_Front03]
657 124.143021 -0.000045 0.000007 0.353362 -0.449709 91.112068 124.143021
658 124.143021 -0.000045 0.000007 0.353255 -0.449449 96.079224 124.143021
659 124.143021 -0.000045 0.000007 0.353853 -0.441276 99.889450 124.143021
660 124.143021 -0.000045 0.000007 0.356255 -0.439124 102.239372 124.143021
661 124.143021 -0.000045 0.000007 0.353570 -0.435077 104.172363 124.143021
[BN_L_Leg_Rear02]
657 139.939041 0.000075 -0.000022 22.307846 -17.784586 102.183533 139.939041
658 139.939041 0.000075 -0.000022 15.457700 -23.656979 105.566650 139.939041
659 139.939041 0.000075 -0.000022 19.350132 -25.111250 108.189125 139.939041
660 139.939041 0.000075 -0.000022 28.493402 -21.248865 107.650871 139.939041
661 139.939041 0.000075 -0.000022 30.617666 -17.565992 107.927368 139.939041
[BN_L_Leg_Rear03]
657 142.839615 0.000179 -0.000060 0.000487 -0.002296 -113.937325 142.839615
658 142.839615 0.000179 -0.000060 0.000585 -0.002273 -118.856110 142.839615
659 142.839615 0.000179 -0.000060 0.000652 -0.002255 -122.230347 142.839615
660 142.839615 0.000179 -0.000060 0.000664 -0.002251 -122.883804 142.839615
661 142.839615 0.000179 -0.000060 0.000706 -0.002239 -124.986443 142.839615
[BN_Head]
657 57.062447 -0.000030 0.000000 0.804844 20.912510 46.650524 57.062447
658 57.062447 -0.000030 0.000000 1.381661 20.908419 43.675507 57.062447
659 57.062447 -0.000030 0.000000 2.357028 20.531494 41.685169 57.062447
660 57.062447 -0.000030 0.000000 3.517454 19.582766 41.063923 57.062447
661 57.062447 -0.000030 0.000000 3.501469 17.508991 40.349621 57.062447
[BN_Needle]
657 33.589977 60.818836 -0.000153 0.000003 0.000030 87.896805 69.478180
658 33.591408 60.857689 -0.000153 0.000003 0.000030 87.896805 69.512878
659 33.592838 60.896538 -0.000153 0.000003 0.000030 87.896805 69.547592
660 33.594269 60.935387 -0.000153 0.000003 0.000030 87.896805 69.582298
661 33.595699 60.974236 -0.000153 0.000003 0.000030 87.896805 69.617012
[BN_R_Leg_Front02]
657 142.804947 -0.000060 0.000060 92.248184 42.686115 142.470490 142.804947
658 142.804947 -0.000060 0.000060 89.679871 38.140545 143.582520 142.804947
659 142.804947 -0.000060 0.000060 87.703079 43.181293 144.519577 142.804947
660 142.804947 -0.000060 0.000060 86.702438 53.298370 144.893112 142.804947
661 142.804947 -0.000060 0.000060 88.009102 52.216545 146.778687 142.804947
[BN_R_Leg_Front03]
657 124.143005 -0.000060 -0.000156 -0.354522 -0.292479 -139.264740 124.143005
658 124.143005 -0.000060 -0.000156 -0.354972 -0.356709 -127.617714 124.143005
659 124.143005 -0.000060 -0.000156 -0.355774 -0.433543 -104.868103 124.143005
660 124.143005 -0.000060 -0.000156 -0.353154 -0.445315 -80.419159 124.143005
661 124.143005 -0.000060 -0.000156 -0.352514 -0.439648 -79.605804 124.143005
[BN_R_Leg_Rear02]
657 139.939011 -0.000149 0.000015 -118.109146 62.001133 168.629074 139.939011
658 139.939011 -0.000149 0.000015 -117.807106 62.275234 170.100372 139.939011
659 139.939011 -0.000149 0.000015 -113.091835 64.232498 176.590546 139.939011
660 139.939011 -0.000149 0.000015 -94.055016 66.001785 -161.058701 139.939011
661 139.939011 -0.000149 0.000015 -67.318565 60.138691 -129.734238 139.939011
[BN_R_Leg_Rear03]
657 142.839417 0.000075 0.000119 0.002347 -0.000012 90.562851 142.839417
658 142.839417 0.000075 0.000119 0.002339 -0.000199 99.734215 142.839417
659 142.839417 0.000075 0.000119 0.002321 -0.000351 107.221779 142.839417
660 142.839417 0.000075 0.000119 0.002306 -0.000439 111.554382 142.839417
661 142.839417 0.000075 0.000119 0.002289 -0.000519 115.548569 142.839417
[BN_SackDef01]
657 447.984467 -10.584483 77.356331 -128.408218 -44.374973 -11.740845 454.737396
658 443.149872 -10.418036 76.517075 -128.408218 -44.374973 -11.740845 449.827972
659 438.314972 -10.251578 75.677757 -128.408218 -44.374973 -11.740845 444.918243
660 433.480408 -10.085130 74.838501 -128.408218 -44.374973 -11.740845 440.008850
661 428.645813 -9.918682 73.999245 -128.408218 -44.374973 -11.740845 435.099426
[BN_SackDef02]
657 192.474121 -146.988159 86.983696 32.077126 -27.375721 -88.781525 257.328552
658 191.164658 -144.918320 85.976067 32.077126 -27.375721 -88.781525 254.827652
659 189.855103 -142.848358 84.968384 32.077126 -27.375721 -88.781525 252.329636
660 188.545624 -140.778519 83.960754 32.077126 -27.375721 -88.781525 249.834854
661 187.236145 -138.708679 82.953125 32.077126 -27.375721 -88.781525 247.343262
[BN_SackDef03]
657 447.984344 -10.584342 -77.356285 18.144459 44.375008 -11.740894 454.737274
658 443.149750 -10.417894 -76.517036 18.144459 44.375008 -11.740894 449.827850
659 438.314850 -10.251436 -75.677727 18.144459 44.375008 -11.740894 444.918121
660 433.480286 -10.084989 -74.838478 18.144459 44.375008 -11.740894 440.008698
661 428.645691 -9.918541 -73.999229 18.144459 44.375008 -11.740894 435.099274
[BN_SackDef04]
657 192.474014 -146.988129 -86.983841 146.059982 27.375723 -88.781555 257.328491
658 191.164536 -144.918274 -85.976219 146.059982 27.375723 -88.781555 254.827576
659 189.854980 -142.848312 -84.968536 146.059982 27.375723 -88.781555 252.329559
660 188.545517 -140.778488 -83.960907 146.059982 27.375723 -88.781555 249.834793
661 187.236038 -138.708618 -82.953285 146.059982 27.375723 -88.781555 247.343216
[BN_SackDef05]
657 215.883652 169.903046 -120.913773 0.155741 51.314110 90.605110 300.154877
658 213.515335 166.884857 -119.521408 0.155741 51.314110 90.605110 296.183594
659 211.146866 163.866486 -118.128952 0.155741 51.314110 90.605110 292.215118
660 208.778534 160.848297 -116.736588 0.155741 51.314110 90.605110 288.250031
661 206.410217 157.830109 -115.344215 0.155741 51.314110 90.605110 284.288239
[BN_SackDef06]
657 215.883652 169.903122 120.913605 152.058487 -51.314072 90.605019 300.154846
658 213.515335 166.884949 119.521240 152.058487 -51.314072 90.605019 296.183594
659 211.146866 163.866562 118.128784 152.058487 -51.314072 90.605019 292.215057
660 208.778534 160.848373 116.736412 152.058487 -51.314072 90.605019 288.250000
661 206.410217 157.830185 115.344048 152.058487 -51.314072 90.605019 284.288239
